<svg width="16" height="18" viewBox="0 0 16 18" fill="none" xmlns="http://www.w3.org/2000/svg">
<path fill-rule="evenodd" clip-rule="evenodd" d="M0 16.875C0 16.5766 0.120408 16.2905 0.334735 16.0795C0.549062 15.8685 0.839753 15.75 1.14286 15.75H14.8571C15.1602 15.75 15.4509 15.8685 15.6653 16.0795C15.8796 16.2905 16 16.5766 16 16.875C16 17.1734 15.8796 17.4595 15.6653 17.6705C15.4509 17.8815 15.1602 18 14.8571 18H1.14286C0.839753 18 0.549062 17.8815 0.334735 17.6705C0.120408 17.4595 0 17.1734 0 16.875ZM3.76343 5.29521C3.54918 5.08423 3.42882 4.79813 3.42882 4.49982C3.42882 4.20151 3.54918 3.91541 3.76343 3.70443L7.192 0.329389C7.40632 0.118481 7.69696 0 8 0C8.30305 0 8.59368 0.118481 8.808 0.329389L12.2366 3.70443C12.4448 3.91661 12.5599 4.2008 12.5573 4.49577C12.5547 4.79075 12.4345 5.07291 12.2227 5.2815C12.0108 5.49009 11.7241 5.6084 11.4245 5.61097C11.1248 5.61353 10.8361 5.50014 10.6206 5.29521L9.14286 3.84056V12.3749C9.14286 12.6733 9.02245 12.9594 8.80812 13.1704C8.59379 13.3814 8.30311 13.4999 8 13.4999C7.6969 13.4999 7.40621 13.3814 7.19188 13.1704C6.97755 12.9594 6.85714 12.6733 6.85714 12.3749V3.84056L5.37943 5.29521C5.16511 5.50611 4.87447 5.62459 4.57143 5.62459C4.26838 5.62459 3.97775 5.50611 3.76343 5.29521Z" fill="#7F7F7F"/>
</svg>
